<svg width="300" height="150" xmlns="http://www.w3.org/2000/svg">
 <g>
  <title>background</title>
  <rect fill="none" id="canvas_background" height="39.5" width="77" y="-1" x="-1"/>
 </g>

 <g>
  <title>Layer 1</title>
  <g id="svg_1">
   <g id="svg_8">
    <path id="svg_9" d="m96.842,77.2465l-15.419,-0.027c-1.064,0 -1.968,-0.373 -2.721,-1.123c-0.749,-0.748 -1.125,-1.65 -1.125,-2.713l0,-3.838c0,-1.061 0.376,-1.967 1.125,-2.721c0.753,-0.75 1.657,-1.127 2.721,-1.127l15.419,0c1.062,0 1.968,0.377 2.716,1.127c0.753,0.754 1.128,1.66 1.128,2.721l-19.264,0l0,3.854l15.419,0c1.062,0 1.968,0.375 2.716,1.127c0.753,0.752 1.128,1.656 1.128,2.721l0,3.848c0,1.064 -0.375,1.971 -1.128,2.723c-0.748,0.75 -1.654,1.127 -2.716,1.127l-11.574,0c0,-1.063 0.377,-1.965 1.127,-2.717c0.75,-0.752 1.658,-1.133 2.721,-1.133l7.727,0l0,-3.849z" fill="#ffffff"/>
    <path id="svg_10" d="m128.993,81.0945c0,1.064 -0.375,1.971 -1.126,2.723c-0.751,0.75 -1.657,1.127 -2.718,1.127l-15.418,0c-1.064,0 -1.968,-0.377 -2.721,-1.125c-0.751,-0.75 -1.127,-1.652 -1.127,-2.717l0,-11.557c0,-1.061 0.375,-1.967 1.127,-2.721c0.753,-0.75 1.657,-1.127 2.721,-1.127l11.537,0c1.06,0 1.974,0.377 2.735,1.123c0.759,0.748 1.145,1.648 1.145,2.705l-15.417,0.02l0,11.549l19.262,0z" fill="#ffffff"/>
    <path id="svg_11" d="m141.881,69.5455c0,-1.061 0.372,-1.967 1.125,-2.721c0.749,-0.75 1.652,-1.127 2.715,-1.127l7.713,0c1.068,0 1.981,0.377 2.733,1.127c0.754,0.754 1.131,1.66 1.131,2.721l0,11.549c0,1.064 -0.377,1.971 -1.131,2.723c-0.751,0.75 -1.665,1.127 -2.733,1.127l-15.401,0c-1.063,0 -1.97,-0.377 -2.717,-1.127c-0.75,-0.752 -1.126,-1.658 -1.126,-2.723l0,-3.848c0,-1.064 0.376,-1.969 1.129,-2.721c0.751,-0.752 1.657,-1.127 2.72,-1.127l7.696,0c1.064,0 1.971,0.375 2.724,1.127c0.751,0.752 1.127,1.656 1.127,2.721l-11.552,0l0,3.848l15.399,0l0,-11.549l-11.552,0z" fill="#ffffff"/>
    <path id="svg_12" d="m166.342,84.9435c-1.063,0 -1.968,-0.377 -2.72,-1.125c-0.75,-0.75 -1.126,-1.656 -1.126,-2.717l0,-11.563c0,-1.059 0.376,-1.965 1.126,-2.715c0.751,-0.75 1.657,-1.127 2.72,-1.127l15.414,0c1.068,0 1.975,0.377 2.721,1.127c0.751,0.75 1.128,1.656 1.128,2.715l0,11.563c0,1.061 -0.377,1.967 -1.128,2.717c-0.746,0.748 -1.653,1.125 -2.721,1.125l0,-15.418l-15.414,0l0,15.418z" fill="#ffffff"/>
    <path fill="#ffffff" id="svg_13" d="m196.572,81.1015l0,-11.557l-5.77,0c0,-1.061 0.374,-1.967 1.123,-2.721c0.76,-0.75 1.661,-1.127 2.722,-1.127l7.699,0c1.064,0 1.967,0.377 2.726,1.127c0.749,0.754 1.121,1.66 1.121,2.721l-5.771,0l0,15.398c-1.061,0 -1.962,-0.377 -2.722,-1.125c-0.749,-0.749 -1.128,-1.651 -1.128,-2.716z"/>
    <path fill="#ffffff" id="svg_14" d="m226.763,81.0945c0,1.064 -0.375,1.971 -1.124,2.723c-0.748,0.75 -1.655,1.127 -2.716,1.127l-7.691,0c-1.064,0 -1.972,-0.377 -2.721,-1.127c-0.757,-0.752 -1.126,-1.658 -1.126,-2.723l0,-11.549c0,-1.061 0.369,-1.967 1.126,-2.721c0.749,-0.75 1.656,-1.127 2.721,-1.127l15.417,0c1.061,0 1.968,0.377 2.716,1.127c0.752,0.754 1.126,1.66 1.126,2.721l0,3.854c0,1.063 -0.374,1.971 -1.126,2.723c-0.748,0.752 -1.655,1.125 -2.716,1.125l-7.723,0c-1.063,0 -1.964,-0.373 -2.719,-1.125c-0.754,-0.752 -1.128,-1.66 -1.128,-2.723l11.564,0l0,-3.854l-15.412,0l0,11.549l11.532,0z"/>
    <path fill="#ffffff" id="svg_15" d="m262.798,81.0945c0,1.064 -0.378,1.971 -1.123,2.723c-0.752,0.75 -1.659,1.127 -2.727,1.127l-15.408,0c-1.065,0 -1.976,-0.377 -2.722,-1.125c-0.757,-0.75 -1.128,-1.652 -1.128,-2.717l0,-11.557c0,-1.061 0.371,-1.967 1.128,-2.721c0.746,-0.75 1.656,-1.127 2.722,-1.127l11.529,0c1.065,0 1.972,0.377 2.736,1.123c0.764,0.748 1.143,1.648 1.143,2.705l-15.408,0.02l0,11.549l19.258,0z"/>
    <path fill="#ffffff" id="svg_16" d="m271.839,84.9435c-1.061,0 -1.967,-0.377 -2.718,-1.125c-0.752,-0.75 -1.129,-1.656 -1.129,-2.719l0,-11.574c0,-1.061 0.377,-1.971 1.129,-2.721c0.751,-0.748 1.657,-1.129 2.718,-1.129l0,19.268zm15.418,0c1.064,0 1.969,-0.377 2.721,-1.125c0.751,-0.75 1.129,-1.656 1.129,-2.719l0,-11.574c0,-0.807 -0.441,-1.756 -1.317,-2.838c-0.877,-1.09 -1.587,-1.633 -2.114,-1.633c-0.276,0 -0.418,0.209 -0.418,0.621l0,7.695l-11.563,0c0,1.066 0.375,1.969 1.122,2.721c0.75,0.754 1.655,1.127 2.721,1.127l7.721,0l0,7.725l-0.002,0z"/>
   </g>
   <g stroke="null" id="svg_65">
    <g stroke="null" id="svg_4">
     <path stroke="null" id="svg_5" d="m57.50859,56.856694c1.56297,-0.21753 2.73231,0.87643 2.72944,2.74497l-0.0564,30.12625c-0.00806,2.19483 -1.66655,4.21759 -3.69967,4.50302l-32.55587,4.57554c-2.03485,0.28543 -2.08721,-0.16746 -0.12833,-1.01167l28.27727,-12.1809c1.96465,-0.84651 3.20593,-3.23182 2.76339,-5.30753l-3.37165,-15.79252c-0.28198,-1.30689 -1.03469,-1.93185 -1.93875,-1.80294c-0.53116,0.07539 -1.1141,0.40628 -1.68957,1.00994l-11.19627,11.82239c-0.57029,0.60136 -1.15899,0.93686 -1.69475,1.01224c-0.91154,0.13006 -1.67921,-0.49145 -1.97385,-1.79258l-0.79185,-3.47984c-0.4644,-2.05902 0.75847,-4.4121 2.72829,-5.22581l21.75436,-8.96232c0.28831,-0.12027 0.57431,-0.19911 0.84421,-0.23824z" fill="#ffffff"/>
    </g>
    <g stroke="null" id="svg_6">
     <path fill="#ffffff" stroke="null" id="svg_7" d="m56.5631,51.192954c2.03197,-0.28543 2.08664,0.17321 0.1266,1.01224l-28.79576,12.35757c-1.96292,0.84133 -3.2088,3.22722 -2.77375,5.30925l3.31066,15.79023c0.27219,1.31033 1.02721,1.93817 1.93356,1.81214c0.53058,-0.07481 1.11238,-0.4057 1.68267,-1.00706l11.27684,-11.85174c0.56741,-0.59791 1.1469,-0.92535 1.67173,-0.99901c0.90118,-0.12775 1.64814,0.50296 1.91515,1.82366l0.69804,3.44704c0.41606,2.08607 -0.84708,4.46102 -2.81058,5.28739l-20.98035,8.80463c-0.29924,0.12488 -0.58928,0.2066 -0.8655,0.24515c-1.55319,0.2181 -2.707,-0.8724 -2.70239,-2.72771l0.05467,-30.22695c0.00633,-2.18735 1.66597,-4.21529 3.69909,-4.5036l32.55932,-4.57323z"/>
    </g>
   </g>
  </g>
 </g>
</svg>